<?xml version="1.0" encoding="UTF-8" standalone="no"?>
<!DOCTYPE svg PUBLIC "-//W3C//DTD SVG 1.1//EN" "http://www.w3.org/Graphics/SVG/1.1/DTD/svg11.dtd">
<svg width="100%" height="100%" viewBox="0 0 424 424" version="1.1" xmlns="http://www.w3.org/2000/svg" xmlns:xlink="http://www.w3.org/1999/xlink" xml:space="preserve" xmlns:serif="http://www.serif.com/" style="fill-rule:evenodd;clip-rule:evenodd;stroke-linejoin:round;stroke-miterlimit:2;">
    <path d="M167.289,297.133C165.688,297.133 164.074,296.582 162.758,295.461L117.461,256.891C115.898,255.559 115,253.613 115,251.559C115,249.508 115.902,247.563 117.461,246.23L162.758,207.66C165.699,205.152 170.117,205.508 172.625,208.449C175.129,211.395 174.777,215.813 171.832,218.316L132.797,251.559L171.832,284.801C174.777,287.309 175.129,291.727 172.625,294.668C171.238,296.297 169.27,297.133 167.289,297.133Z" style="fill:white;fill-rule:nonzero;"/>
    <path d="M256.711,297.133C254.73,297.133 252.762,296.297 251.379,294.668C248.871,291.727 249.227,287.309 252.168,284.801L291.203,251.559L252.168,218.316C249.227,215.813 248.871,211.395 251.379,208.449C253.883,205.508 258.305,205.152 261.242,207.66L306.539,246.23C308.102,247.563 309,249.508 309,251.559C309,253.613 308.102,255.559 306.539,256.891L261.242,295.461C259.926,296.582 258.313,297.133 256.711,297.133Z" style="fill:white;fill-rule:nonzero;"/>
    <path d="M195.965,326.063C195.484,326.063 195,326.012 194.512,325.91C190.73,325.113 188.309,321.398 189.105,317.617L217.336,183.582C218.133,179.801 221.844,177.379 225.629,178.176C229.41,178.973 231.832,182.684 231.035,186.469L202.805,320.504C202.109,323.801 199.203,326.063 195.965,326.063Z" style="fill:white;fill-rule:nonzero;"/>
    <path d="M377,399.086L47,399.086C21.086,399.086 0,378.004 0,352.086L0,72C0,46.086 21.086,25 47,25L377,25C402.914,25 424,46.086 424,72L424,352.086C424,378.004 402.914,399.086 377,399.086ZM47,39C28.805,39 14,53.805 14,72L14,352.086C14,370.281 28.805,385.086 47,385.086L377,385.086C395.195,385.086 410,370.281 410,352.086L410,72C410,53.805 395.195,39 377,39L47,39Z" style="fill:white;fill-rule:nonzero;"/>
    <path d="M417,137.09L7,137.09C3.133,137.09 0,133.957 0,130.09C0,126.227 3.133,123.09 7,123.09L417,123.09C420.867,123.09 424,126.227 424,130.09C424,133.957 420.867,137.09 417,137.09Z" style="fill:white;fill-rule:nonzero;"/>
    <path d="M119.602,103.594C107.391,103.594 97.449,93.652 97.449,81.441C97.449,69.227 107.391,59.289 119.602,59.289C131.816,59.289 141.754,69.227 141.754,81.441C141.754,93.652 131.816,103.594 119.602,103.594ZM119.602,73.289C115.109,73.289 111.449,76.945 111.449,81.441C111.449,85.938 115.109,89.594 119.602,89.594C124.098,89.594 127.754,85.938 127.754,81.441C127.754,76.945 124.098,73.289 119.602,73.289Z" style="fill:white;fill-rule:nonzero;"/>
    <path d="M51.539,103.379C39.324,103.379 29.387,93.441 29.387,81.227C29.387,69.012 39.324,59.074 51.539,59.074C63.754,59.074 73.691,69.012 73.691,81.227C73.691,93.441 63.754,103.379 51.539,103.379ZM51.539,73.074C47.047,73.074 43.387,76.734 43.387,81.227C43.387,85.723 47.047,89.379 51.539,89.379C56.035,89.379 59.691,85.723 59.691,81.227C59.691,76.734 56.035,73.074 51.539,73.074Z" style="fill:white;fill-rule:nonzero;"/>
    <path d="M187.664,103.805C175.453,103.805 165.516,93.867 165.516,81.652C165.516,69.441 175.453,59.504 187.664,59.504C199.879,59.504 209.816,69.441 209.816,81.652C209.816,93.867 199.879,103.805 187.664,103.805ZM187.664,73.5C183.172,73.5 179.516,77.156 179.516,81.652C179.516,86.148 183.172,89.805 187.664,89.805C192.16,89.805 195.816,86.148 195.816,81.652C195.816,77.156 192.16,73.5 187.664,73.5Z" style="fill:white;fill-rule:nonzero;"/>
</svg>
